Cape Fear (1991)

Director: Martin Scorsese

Cape Fear has variously been described as"mesmerising", "harrowing" and "compelling", and is unquestionably a cut above your standard Hollywood thriller. From its inception, Martin Scorsese sets out to captivate his audience with a brilliantly enigmatic and artistic opening.

An update of J. Lee Thompson's 1962 classic, the basic plot remains the same, yet the psychological aspect is played upon, accentuating the intertwining themes of sin, guilt and redemption. Robert De Niro's portrayal of "white trash", ex-con Max Cady, a fiendish psychotic, is chilling in the extreme. Not one to hold back on a role, De Niro, bedecked in biblically inspired tattoos, is fully committed in his single-minded pursuit of vengeance against attorney Sam Bowden (Nick Nolte) and his family. The Bowdens are depicted in an unsympathetic light, an upper middle-class family with serious domestic problems, due primarily to Sam's unfaithfulness to his wife Leigh (Jessica Lange), not to mention the menacing intentions of Cady. Unfortunately, their 15-year-old daughter Danielle (Juliette Lewis) is caught in the ensuing emotional imbrogli, thus creating an easy target for mad Max, thirsty for revenge against his one-time defence attorney Sam, who, having witnessed his horrifying crimes of violent rape, buried vital evidence which could have saved Cady from a 14 year prison sentence.

The acting is magnificent throughout, with very powerful performances coming from De Niro and Nolte, and 17-year-old Juliette Lewis, making her screen debut, is superb in conveying vulnerability as a potential victim. The remarkable direction, the great camera work and the clever editing, coupled with a spine-chilling musical score, keep the audience on edge, eventually working up to a nerve-wracking climax, which to be fair is slightly over the top. Nevertheless, Cape Fear merits its huge success and is a must-see movie. 

Media Info:
General
Complete name                    : J:\Seeding\Cape Fear (1991)[DVDRip][big_dad_e™]\Cape Fear (1991)[DVDRip][big_dad_e™].avi
Format                           : AVI
Format/Info                      : Audio Video Interleave
Format profile                   : OpenDML
File size                        : 1.24 GiB
Duration                         : 2h 7mn
Overall bit rate                 : 1 389 Kbps
Movie name                       : CAPE_FEAR.Title1.DVDRip
Writing application              : Lavf52.78.4
Original source form/Name        : CAPE_FEAR

Video
ID                               : 0
Format                           : MPEG-4 Visual
Format profile                   : Advanced Simple@L5
Format settings, BVOP            : 2
Format settings, QPel            : No
Format settings, GMC             : No warppoints
Format settings, Matrix          : Default (H.263)
Muxing mode                      : Packed bitstream
Codec ID                         : XVID
Codec ID/Hint                    : XviD
Duration                         : 2h 7mn
Bit rate                         : 243 Kbps
Width                            : 720 pixels
Height                           : 306 pixels
Display aspect ratio             : 2.35:1
Frame rate                       : 23.976 fps
Color space                      : YUV
Chroma subsampling               : 4:2:0
Bit depth                        : 8 bits
Scan type                        : Progressive
Compression mode                 : Lossy
Bits/(Pixel*Frame)               : 0.046
Stream size                      : 222 MiB (18%)
Writing library                  : XviD 

Audio
ID                               : 1
Format                           : MPEG Audio
Format version                   : Version 1
Format profile                   : Layer 3
Mode                             : Joint stereo
Codec ID                         : 55
Codec ID/Hint                    : MP3
Duration                         : 2h 7mn
Bit rate mode                    : Constant
Bit rate                         : 320 Kbps
Channel(s)                       : 2 channels
Sampling rate                    : 48.0 KHz
Compression mode                 : Lossy
Stream size                      : 55.0 MiB (4%)
Alignment                        : Aligned on interleaves
Interleave, duration             : 30 ms (0.71 video frame)
Writing library                  : LAME3.98.4

File Scan:
Malwarebytes' Anti-Malware 1.50.1.1100
www.malwarebytes.org

Database version: 6046
3/13/2011 7:06:59 PM
mbam-log-2011-03-13 (19-06-59).txt

Scan type: Quick scan
Objects scanned: 5
Time elapsed: 18 second(s)

Memory Processes Infected: 0
Memory Modules Infected: 0
Registry Keys Infected: 0
Registry Values Infected: 0
Registry Data Items Infected: 0
Folders Infected: 0
Files Infected: 0

Memory Processes Infected:
(No malicious items detected)

Memory Modules Infected:
(No malicious items detected)

Registry Keys Infected:
(No malicious items detected)

Registry Values Infected:
(No malicious items detected)

Registry Data Items Infected:
(No malicious items detected)

Folders Infected:
(No malicious items detected)

Files Infected:
(No malicious items detected)

When using TPB please read these important notes:
  
01- Anti-malware apps may warn about keygens, patches, cracks, etc., because of 
    their capabilities, (generating codes, etc.). Sometimes they're added to 
    the virus/spyware database and will be detected as malware. If you don't trust
    the keygens, patches, cracks, etc., don't use them. 
    
02- Before running .exe-files, keygens, patches, cracks, etc., always check first 
    if they can be unpacked. Often some third party added a virus to the 
    original file, repacked it and uploaded it again.

03- Letting anti-malware apps send scan results to their companies can cause
    keygens, patches, cracks, etc., to be added to their virus-database.

04- Firewalls which are set to automatically determine connections will allow 
    apps & malware!. Avoid this by manually configuring your firewall.

05- Usually (new) torrents with many downloads and seeders in a brief period is
    suspicious! Torrents with the Skull & Crossbones icon are trusted.

06- Some people use multiple accounts and post fake comments 
    and/or files trying to spread confusion. They seldom seriously
    comment or have any torrents, or a just a few to look passable.

07- Clicking on unknown links can cause malware to be installed on your machine.
  
08- In general often there are more fake and negative comments than reliable and
    positive comments.

09- In some countries uploading/downloading copyright protected material is 
    forbidden, but showing some appreciation to reliable up-loaders is not.

10- Posting fake and negative comments or fake/infected uploads on TPB can result
    in getting banned from TPB!

Requests?  Find me on SuprBay. http://forum.suprbay.org
 

For reporting bad or suspicious torrents:  
http://forum.suprbay.org/forumdisplay.php?fid=29

For more of my torrents: 
https://thepiratebay.org/user/big_dad_e/  (Secured)

All torrents scanned with:
Norton Anti-virus
Malwarebytes' Anti-malware
 
http://www.pirate-party.us/

ALWAYS SEED & THANKS SEEDERS!